<svg width="12" height="13" viewBox="0 0 12 13" fill="none" xmlns="http://www.w3.org/2000/svg">
<path d="M5.8117 0.473022H6.24636C6.34295 0.473022 6.43954 0.489128 6.54149 0.494497C7.17469 0.537445 7.7918 0.682397 8.37134 0.945457C10.4749 1.91717 11.6661 3.55458 11.8969 5.86844C11.9881 6.75425 11.8486 7.61323 11.5266 8.44536C10.5661 10.8988 8.11913 12.4235 5.4629 12.155C4.50237 12.0584 3.61696 11.7417 2.81741 11.1994C1.40612 10.2331 0.558275 8.90705 0.279237 7.21595C0.252407 7.05489 0.236308 6.89384 0.214844 6.73278C0.214844 6.46972 0.214844 6.20666 0.214844 5.93823C0.230942 5.79865 0.24704 5.65907 0.268505 5.51948C0.477783 4.12365 1.09489 2.9372 2.14128 1.98696C3.01059 1.19778 4.03015 0.714608 5.1946 0.537445C5.31265 0.52134 5.42534 0.505234 5.5434 0.489128C5.63462 0.478391 5.72584 0.473022 5.8117 0.473022ZM6.06391 11.1994C8.75233 11.2048 10.9363 9.02516 10.9417 6.34087C10.9471 3.65122 8.76843 1.45547 6.08001 1.4501C3.39158 1.44473 1.20221 3.62438 1.19684 6.31403C1.19148 9.00906 3.37012 11.1994 6.06391 11.1994Z" fill="#3C2415"/>
<path d="M5.10352 6.33544C5.10352 5.77711 5.10352 5.21341 5.10352 4.65507C5.10352 4.59602 5.10352 4.5316 5.11961 4.47254C5.18401 4.2739 5.40938 4.21485 5.5972 4.34906C5.96746 4.61749 6.33772 4.88592 6.70798 5.15435C7.12117 5.45499 7.53437 5.75563 7.94756 6.05627C8.18903 6.23343 8.18903 6.43744 7.94756 6.6146C7.1802 7.17293 6.41285 7.73127 5.64549 8.28423C5.5811 8.32718 5.50597 8.37013 5.43621 8.38623C5.26987 8.41844 5.13035 8.30034 5.11425 8.12854C5.10888 8.08559 5.10888 8.03728 5.10888 7.98896C5.10352 7.43599 5.10352 6.8884 5.10352 6.33544Z" fill="#3C2415"/>
</svg>
