<svg width="12" height="13" viewBox="0 0 12 13" fill="none" xmlns="http://www.w3.org/2000/svg">
<path d="M5.6828 0.473022H6.11745C6.21404 0.473022 6.31063 0.489128 6.41259 0.494497C7.04579 0.537445 7.66289 0.682397 8.24243 0.945457C10.3459 1.91717 11.5372 3.55458 11.768 5.86844C11.8592 6.75425 11.7197 7.61323 11.3977 8.44536C10.4372 10.8988 7.99022 12.4235 5.334 12.155C4.37346 12.0584 3.48805 11.7417 2.6885 11.1994C1.27722 10.2331 0.429369 8.90705 0.150331 7.21595C0.1235 7.05489 0.107402 6.89384 0.0859375 6.73278C0.0859375 6.46972 0.0859375 6.20666 0.0859375 5.93823C0.102036 5.79865 0.118134 5.65907 0.139599 5.51948C0.348877 4.12365 0.96598 2.9372 2.01237 1.98696C2.88168 1.19778 3.90125 0.714608 5.06569 0.537445C5.18375 0.52134 5.29643 0.505234 5.41449 0.489128C5.50571 0.478391 5.59694 0.473022 5.6828 0.473022ZM5.935 11.1994C8.62343 11.2048 10.8074 9.02516 10.8128 6.34087C10.8182 3.65122 8.63952 1.45547 5.9511 1.4501C3.26268 1.44473 1.0733 3.62438 1.06794 6.31403C1.06257 9.00906 3.24121 11.1994 5.935 11.1994Z" fill="#3C2415"/>
<path d="M4.97461 6.33544C4.97461 5.77711 4.97461 5.21341 4.97461 4.65507C4.97461 4.59602 4.97461 4.5316 4.99071 4.47254C5.0551 4.2739 5.28048 4.21485 5.46829 4.34906C5.83855 4.61749 6.20882 4.88592 6.57908 5.15435C6.99227 5.45499 7.40546 5.75563 7.81865 6.05627C8.06013 6.23343 8.06013 6.43744 7.81865 6.6146C7.0513 7.17293 6.28394 7.73127 5.51659 8.28423C5.45219 8.32718 5.37707 8.37013 5.30731 8.38623C5.14096 8.41844 5.00144 8.30034 4.98534 8.12854C4.97998 8.08559 4.97998 8.03728 4.97998 7.98896C4.97461 7.43599 4.97461 6.8884 4.97461 6.33544Z" fill="#3C2415"/>
</svg>
