<svg width="13" height="13" viewBox="0 0 13 13" fill="none" xmlns="http://www.w3.org/2000/svg">
<path d="M6.05877 0.473022H6.49343C6.59002 0.473022 6.68661 0.489128 6.78856 0.494497C7.42176 0.537445 8.03887 0.682397 8.61841 0.945457C10.7219 1.91717 11.9132 3.55458 12.1439 5.86844C12.2352 6.75425 12.0957 7.61323 11.7737 8.44536C10.8131 10.8988 8.3662 12.4235 5.70997 12.155C4.74944 12.0584 3.86403 11.7417 3.06448 11.1994C1.65319 10.2331 0.805345 8.90705 0.526307 7.21595C0.499477 7.05489 0.483379 6.89384 0.461914 6.73278C0.461914 6.46972 0.461914 6.20666 0.461914 5.93823C0.478012 5.79865 0.494111 5.65907 0.515575 5.51948C0.724854 4.12365 1.34196 2.9372 2.38835 1.98696C3.25766 1.19778 4.27722 0.714608 5.44167 0.537445C5.55972 0.52134 5.67241 0.505234 5.79047 0.489128C5.88169 0.478391 5.97291 0.473022 6.05877 0.473022ZM6.31098 11.1994C8.9994 11.2048 11.1834 9.02516 11.1888 6.34087C11.1941 3.65122 9.0155 1.45547 6.32708 1.4501C3.63865 1.44473 1.44928 3.62438 1.44391 6.31403C1.43855 9.00906 3.61719 11.1994 6.31098 11.1994Z" fill="#3C2415"/>
<path d="M5.35059 6.33544C5.35059 5.77711 5.35059 5.21341 5.35059 4.65507C5.35059 4.59602 5.35059 4.5316 5.36668 4.47254C5.43108 4.2739 5.65645 4.21485 5.84427 4.34906C6.21453 4.61749 6.58479 4.88592 6.95505 5.15435C7.36825 5.45499 7.78144 5.75563 8.19463 6.05627C8.4361 6.23343 8.4361 6.43744 8.19463 6.6146C7.42727 7.17293 6.65992 7.73127 5.89256 8.28423C5.82817 8.32718 5.75304 8.37013 5.68329 8.38623C5.51694 8.41844 5.37742 8.30034 5.36132 8.12854C5.35595 8.08559 5.35595 8.03728 5.35595 7.98896C5.35059 7.43599 5.35059 6.8884 5.35059 6.33544Z" fill="#3C2415"/>
</svg>
