<svg width="13" height="13" viewBox="0 0 13 13" fill="none" xmlns="http://www.w3.org/2000/svg">
<path d="M6.30584 0.473022H6.7405C6.83709 0.473022 6.93368 0.489128 7.03563 0.494497C7.66884 0.537445 8.28594 0.682397 8.86548 0.945457C10.969 1.91717 12.1603 3.55458 12.391 5.86844C12.4822 6.75425 12.3427 7.61323 12.0208 8.44536C11.0602 10.8988 8.61327 12.4235 5.95704 12.155C4.99651 12.0584 4.1111 11.7417 3.31155 11.1994C1.90026 10.2331 1.05242 8.90705 0.773378 7.21595C0.746547 7.05489 0.730449 6.89384 0.708984 6.73278C0.708984 6.46972 0.708984 6.20666 0.708984 5.93823C0.725083 5.79865 0.741181 5.65907 0.762646 5.51948C0.971924 4.12365 1.58903 2.9372 2.63542 1.98696C3.50473 1.19778 4.52429 0.714608 5.68874 0.537445C5.80679 0.52134 5.91948 0.505234 6.03754 0.489128C6.12876 0.478391 6.21998 0.473022 6.30584 0.473022ZM6.55805 11.1994C9.24647 11.2048 11.4305 9.02516 11.4358 6.34087C11.4412 3.65122 9.26257 1.45547 6.57415 1.4501C3.88572 1.44473 1.69635 3.62438 1.69098 6.31403C1.68562 9.00906 3.86426 11.1994 6.55805 11.1994Z" fill="#3C2415"/>
<path d="M5.59766 6.33544C5.59766 5.77711 5.59766 5.21341 5.59766 4.65507C5.59766 4.59602 5.59766 4.5316 5.61375 4.47254C5.67815 4.2739 5.90353 4.21485 6.09134 4.34906C6.4616 4.61749 6.83186 4.88592 7.20212 5.15435C7.61532 5.45499 8.02851 5.75563 8.4417 6.05627C8.68317 6.23343 8.68317 6.43744 8.4417 6.6146C7.67434 7.17293 6.90699 7.73127 6.13963 8.28423C6.07524 8.32718 6.00012 8.37013 5.93036 8.38623C5.76401 8.41844 5.62449 8.30034 5.60839 8.12854C5.60302 8.08559 5.60302 8.03728 5.60302 7.98896C5.59766 7.43599 5.59766 6.8884 5.59766 6.33544Z" fill="#3C2415"/>
</svg>
