<svg width="13" height="13" viewBox="0 0 13 13" fill="none" xmlns="http://www.w3.org/2000/svg">
<path d="M6.43572 0.473022H6.87038C6.96697 0.473022 7.06356 0.489128 7.16552 0.494497C7.79872 0.537445 8.41582 0.682397 8.99536 0.945457C11.0989 1.91717 12.2902 3.55458 12.5209 5.86844C12.6121 6.75425 12.4726 7.61323 12.1506 8.44536C11.1901 10.8988 8.74315 12.4235 6.08693 12.155C5.12639 12.0584 4.24098 11.7417 3.44143 11.1994C2.03014 10.2331 1.1823 8.90705 0.903261 7.21595C0.87643 7.05489 0.860332 6.89384 0.838867 6.73278C0.838867 6.46972 0.838867 6.20666 0.838867 5.93823C0.854966 5.79865 0.871064 5.65907 0.892528 5.51948C1.10181 4.12365 1.71891 2.9372 2.7653 1.98696C3.63461 1.19778 4.65417 0.714608 5.81862 0.537445C5.93668 0.52134 6.04936 0.505234 6.16742 0.489128C6.25864 0.478391 6.34987 0.473022 6.43572 0.473022ZM6.68793 11.1994C9.37636 11.2048 11.5604 9.02516 11.5657 6.34087C11.5711 3.65122 9.39245 1.45547 6.70403 1.4501C4.01561 1.44473 1.82623 3.62438 1.82087 6.31403C1.8155 9.00906 3.99414 11.1994 6.68793 11.1994Z" fill="#3C2415"/>
<path d="M5.72754 6.33544C5.72754 5.77711 5.72754 5.21341 5.72754 4.65507C5.72754 4.59602 5.72754 4.5316 5.74364 4.47254C5.80803 4.2739 6.03341 4.21485 6.22122 4.34906C6.59148 4.61749 6.96175 4.88592 7.33201 5.15435C7.7452 5.45499 8.15839 5.75563 8.57158 6.05627C8.81306 6.23343 8.81306 6.43744 8.57158 6.6146C7.80423 7.17293 7.03687 7.73127 6.26952 8.28423C6.20512 8.32718 6.13 8.37013 6.06024 8.38623C5.89389 8.41844 5.75437 8.30034 5.73827 8.12854C5.73291 8.08559 5.73291 8.03728 5.73291 7.98896C5.72754 7.43599 5.72754 6.8884 5.72754 6.33544Z" fill="#3C2415"/>
</svg>
