<svg width="18" height="19" viewBox="0 0 18 19" fill="none" xmlns="http://www.w3.org/2000/svg">
<path d="M0 7.6148C0.0379395 7.30685 0.0758791 6.9989 0.132788 6.71021C0.379395 5.3437 0.967458 4.16966 1.87801 3.14959C2.94032 1.9563 4.2682 1.16719 5.82372 0.859244C7.64482 0.493559 9.37107 0.763011 10.9835 1.74459C12.8046 2.86089 13.9618 4.4776 14.3981 6.57548C14.7775 8.36541 14.4929 10.0784 13.6203 11.6951C13.4496 12.003 13.4496 12.003 13.6962 12.2532C14.9672 13.5427 16.2381 14.8323 17.5091 16.1218C17.9264 16.5452 18.0972 17.0264 17.9454 17.6038C17.6609 18.7008 16.314 19.105 15.4604 18.2197C14.7395 17.469 14.0187 16.7569 13.2788 16.0063C12.6908 15.4097 12.1217 14.8323 11.5336 14.2356C11.4957 14.1971 11.4577 14.1586 11.4388 14.1394C10.9835 14.3703 10.5662 14.6398 10.1109 14.8323C8.157 15.6599 6.18415 15.6406 4.24923 14.7553C2.78856 14.0816 1.68831 13.0231 0.910549 11.6181C0.417335 10.7135 0.113819 9.75117 0.0379395 8.71185C0.0379395 8.65411 0.0189698 8.59637 0 8.53863C0 8.24993 0 7.92274 0 7.6148ZM2.35225 8.09596C2.35225 10.8482 4.57172 13.0808 7.28439 13.0616C9.99707 13.0423 12.1786 10.829 12.1786 8.07671C12.1786 5.3437 9.95913 3.09185 7.26542 3.09185C4.55275 3.11109 2.35225 5.3437 2.35225 8.09596Z" fill="#D0D0D0"/>
</svg>
