<svg width="22" height="22" viewBox="0 0 22 22" fill="none" xmlns="http://www.w3.org/2000/svg">
<g id="Group">
<path id="Vector" d="M11.1416 21.7578C10.7288 21.7578 10.3214 21.7578 9.90855 21.7578C9.63331 21.7246 9.35257 21.6969 9.07733 21.6581C7.00204 21.3644 5.16896 20.5277 3.60011 19.1313C1.74501 17.4856 0.589008 15.441 0.159638 12.9863C0.088076 12.5873 0.0495428 12.1828 0 11.7839C0 11.3683 0 10.9582 0 10.5427C0.0110095 10.4762 0.0330285 10.4097 0.0385333 10.3432C0.0990855 9.39011 0.302761 8.4592 0.622037 7.56709C2.46062 2.46928 7.80574 -0.406546 13.0463 0.878988C18.4574 2.20885 21.9199 7.65574 20.863 13.1525C20.4557 15.2581 19.5088 17.0811 18.006 18.6049C16.4317 20.2008 14.5436 21.2093 12.3361 21.5916C11.9398 21.6636 11.538 21.7024 11.1416 21.7578ZM17.5381 17.2529C20.4612 13.9892 20.885 8.15998 16.839 4.32001C12.9912 0.662885 6.73781 1.06738 3.3634 5.21766C-0.0275238 9.38456 1.10095 14.6763 3.51203 17.2363C4.19462 14.8148 5.70843 13.147 8.02593 12.1994C5.58732 10.4374 5.64237 7.27895 7.22774 5.53905C8.86815 3.73265 11.637 3.54979 13.4206 5.14563C14.3839 6.0045 14.9179 7.09055 14.9399 8.38717C14.9729 9.97746 14.2958 11.2408 13.0187 12.1939C15.3527 13.147 16.85 14.8204 17.5381 17.2529ZM10.6902 20.5166C10.9104 20.5 11.3068 20.4778 11.7031 20.428C13.283 20.2285 14.7142 19.6467 15.9968 18.6991C16.5143 18.3168 16.5087 18.3057 16.3546 17.6574C15.606 14.5322 12.6499 12.5652 9.5067 13.0916C6.958 13.5238 4.92675 15.6294 4.59096 18.2115C4.58546 18.2725 4.6295 18.3667 4.67904 18.411C6.38551 19.7963 8.33419 20.4889 10.6902 20.5166ZM10.5196 11.7229C12.2756 11.7229 13.7068 10.2933 13.7178 8.52015C13.7344 6.75809 12.2811 5.29524 10.5196 5.29524C8.76356 5.29524 7.31031 6.75809 7.32132 8.52015C7.33783 10.2878 8.76356 11.7174 10.5196 11.7229Z" fill="#006838"/>
</g>
</svg>
